<svg preserveAspectRatio="none" overflow="visible" style="display: block;" width="13.56" height="12" viewBox="0 0 13.56 12" fill="none" xmlns="http://www.w3.org/2000/svg">
<g id="Icon">
<path id="Vector" d="M9.6353 8.856C9.5393 8.952 9.4213 9 9.2813 9C9.1413 9 9.0233 8.952 8.9273 8.856L3.9233 3.852C3.8273 3.756 3.7793 3.638 3.7793 3.498C3.7793 3.358 3.8273 3.24 3.9233 3.144C4.0193 3.048 4.1373 3 4.2773 3C4.4173 3 4.5353 3.048 4.6313 3.144L9.6353 8.148C9.7313 8.244 9.7793 8.362 9.7793 8.502C9.7793 8.642 9.7313 8.76 9.6353 8.856ZM4.2833 8.496C4.2833 8.36 4.3313 8.244 4.4273 8.148C4.5233 8.052 4.6393 8.004 4.7753 8.004H9.2753C9.4193 8.004 9.5393 8.052 9.6353 8.148C9.7313 8.244 9.7793 8.362 9.7793 8.502C9.7793 8.642 9.7313 8.76 9.6353 8.856C9.5393 8.952 9.4193 9 9.2753 9H4.7753C4.6393 9 4.5233 8.952 4.4273 8.856C4.3313 8.76 4.2833 8.64 4.2833 8.496ZM9.2753 9C9.1393 9 9.0233 8.952 8.9273 8.856C8.8313 8.76 8.7833 8.64 8.7833 8.496V3.996C8.7833 3.86 8.8313 3.744 8.9273 3.648C9.0233 3.552 9.1413 3.504 9.2813 3.504C9.4213 3.504 9.5393 3.552 9.6353 3.648C9.7313 3.744 9.7793 3.86 9.7793 3.996V8.496C9.7793 8.64 9.7313 8.76 9.6353 8.856C9.5393 8.952 9.4193 9 9.2753 9Z" fill="#F4F1EA"/>
</g>
</svg>
