<svg preserveAspectRatio="none" overflow="visible" style="display: block;" width="33.6" height="33.5" viewBox="0 0 33.6 33.5" fill="none" xmlns="http://www.w3.org/2000/svg">
<g id="Icon">
<path id="Vector" d="M5.64603 23.7188C4.86436 23.7188 4.19995 23.4508 3.65278 22.9148C3.10561 22.3788 2.83203 21.7199 2.83203 20.9383C2.83203 20.5586 2.97161 20.2292 3.25078 19.95C3.52995 19.6708 3.85936 19.5313 4.23903 19.5313C4.6187 19.5313 4.94811 19.6708 5.22728 19.95C5.50645 20.2292 5.64603 20.5586 5.64603 20.9383C6.0257 20.9383 6.34953 21.0723 6.61753 21.3403C6.88553 21.6083 7.01953 21.9377 7.01953 22.3285C7.01953 22.7193 6.88553 23.0488 6.61753 23.3168C6.34953 23.5848 6.0257 23.7188 5.64603 23.7188ZM4.23903 22.3453C4.23903 21.9433 4.37303 21.6083 4.64103 21.3403C4.90903 21.0723 5.24403 20.9383 5.64603 20.9383H27.957C28.359 20.9383 28.694 21.0723 28.962 21.3403C29.23 21.6083 29.364 21.9377 29.364 22.3285C29.364 22.7193 29.23 23.0488 28.962 23.3168C28.694 23.5848 28.359 23.7188 27.957 23.7188H5.64603C5.24403 23.7188 4.90903 23.5848 4.64103 23.3168C4.37303 23.0488 4.23903 22.7249 4.23903 22.3453ZM30.771 20.9383C30.771 21.7199 30.4974 22.3788 29.9503 22.9148C29.4031 23.4508 28.7387 23.7188 27.957 23.7188C27.5774 23.7188 27.2535 23.5848 26.9855 23.3168C26.7175 23.0488 26.5835 22.7193 26.5835 22.3285C26.5835 21.9377 26.7175 21.6083 26.9855 21.3403C27.2535 21.0723 27.5774 20.9383 27.957 20.9383C27.957 20.5586 28.0966 20.2292 28.3758 19.95C28.6549 19.6708 28.9844 19.5313 29.364 19.5313C29.7437 19.5313 30.0731 19.6708 30.3523 19.95C30.6314 20.2292 30.771 20.5586 30.771 20.9383ZM29.364 22.3453C28.9844 22.3453 28.6549 22.2057 28.3758 21.9265C28.0966 21.6473 27.957 21.3179 27.957 20.9383V18.1578C27.957 17.7558 28.0966 17.4208 28.3758 17.1528C28.6549 16.8848 28.9844 16.7508 29.364 16.7508C29.7437 16.7508 30.0731 16.8848 30.3523 17.1528C30.6314 17.4208 30.771 17.7558 30.771 18.1578V20.9383C30.771 21.3179 30.6314 21.6473 30.3523 21.9265C30.0731 22.2057 29.7437 22.3453 29.364 22.3453ZM27.957 15.3438C28.7387 15.3438 29.4031 15.6173 29.9503 16.1645C30.4974 16.7117 30.771 17.3761 30.771 18.1578C30.771 18.5374 30.6314 18.8613 30.3523 19.1293C30.0731 19.3973 29.7437 19.5313 29.364 19.5313C28.9844 19.5313 28.6549 19.3973 28.3758 19.1293C28.0966 18.8613 27.957 18.5374 27.957 18.1578C27.5774 18.1578 27.2535 18.0182 26.9855 17.739C26.7175 17.4598 26.5835 17.1304 26.5835 16.7508C26.5835 16.3711 26.7175 16.0417 26.9855 15.7625C27.2535 15.4833 27.5774 15.3438 27.957 15.3438ZM29.364 16.7508C29.364 17.1304 29.23 17.4598 28.962 17.739C28.694 18.0182 28.359 18.1578 27.957 18.1578H5.64603C5.24403 18.1578 4.90903 18.0182 4.64103 17.739C4.37303 17.4598 4.23903 17.1304 4.23903 16.7508C4.23903 16.3711 4.37303 16.0417 4.64103 15.7625C4.90903 15.4833 5.24403 15.3438 5.64603 15.3438H27.957C28.359 15.3438 28.694 15.4833 28.962 15.7625C29.23 16.0417 29.364 16.3711 29.364 16.7508ZM2.83203 18.1578C2.83203 17.3761 3.10561 16.7117 3.65278 16.1645C4.19995 15.6173 4.86436 15.3438 5.64603 15.3438C6.0257 15.3438 6.34953 15.4833 6.61753 15.7625C6.88553 16.0417 7.01953 16.3711 7.01953 16.7508C7.01953 17.1304 6.88553 17.4598 6.61753 17.739C6.34953 18.0182 6.0257 18.1578 5.64603 18.1578C5.64603 18.5374 5.50645 18.8613 5.22728 19.1293C4.94811 19.3973 4.6187 19.5313 4.23903 19.5313C3.85936 19.5313 3.52995 19.3973 3.25078 19.1293C2.97161 18.8613 2.83203 18.5374 2.83203 18.1578ZM4.23903 16.7508C4.6187 16.7508 4.94811 16.8848 5.22728 17.1528C5.50645 17.4208 5.64603 17.7558 5.64603 18.1578V20.9383C5.64603 21.3179 5.50645 21.6473 5.22728 21.9265C4.94811 22.2057 4.6187 22.3453 4.23903 22.3453C3.85936 22.3453 3.52995 22.2057 3.25078 21.9265C2.97161 21.6473 2.83203 21.3179 2.83203 20.9383V18.1578C2.83203 17.7558 2.97161 17.4208 3.25078 17.1528C3.52995 16.8848 3.85936 16.7508 4.23903 16.7508ZM16.8015 23.7188C16.4219 23.7188 16.0924 23.5848 15.8133 23.3168C15.5341 23.0488 15.3945 22.7249 15.3945 22.3453V4.18825C15.3945 3.80858 15.5341 3.47917 15.8133 3.2C16.0924 2.92083 16.4219 2.78125 16.8015 2.78125C17.1812 2.78125 17.5106 2.92083 17.7898 3.2C18.0689 3.47917 18.2085 3.80858 18.2085 4.18825V22.3453C18.2085 22.7249 18.0689 23.0488 17.7898 23.3168C17.5106 23.5848 17.1812 23.7188 16.8015 23.7188ZM26.5835 18.1578C26.1815 18.1578 25.8465 18.0182 25.5785 17.739C25.3105 17.4598 25.1765 17.1304 25.1765 16.7508V6.96875C25.1765 6.58908 25.3105 6.26525 25.5785 5.99725C25.8465 5.72925 26.1759 5.59525 26.5668 5.59525C26.9576 5.59525 27.287 5.72925 27.555 5.99725C27.823 6.26525 27.957 6.58908 27.957 6.96875V16.7508C27.957 17.1304 27.823 17.4598 27.555 17.739C27.287 18.0182 26.9632 18.1578 26.5835 18.1578ZM23.7695 2.78125C24.5289 2.78125 25.2324 2.97108 25.88 3.35075C26.5277 3.73042 27.0358 4.2385 27.4043 4.875C27.7728 5.5115 27.957 6.20942 27.957 6.96875C27.957 7.37075 27.823 7.70575 27.555 7.97375C27.287 8.24175 26.9576 8.37575 26.5668 8.37575C26.1759 8.37575 25.8465 8.24175 25.5785 7.97375C25.3105 7.70575 25.1765 7.37633 25.1765 6.9855C25.1765 6.59467 25.0425 6.26525 24.7745 5.99725C24.5065 5.72925 24.1771 5.59525 23.7863 5.59525C23.3954 5.59525 23.066 5.45567 22.798 5.1765C22.53 4.89733 22.396 4.56792 22.396 4.18825C22.396 3.80858 22.53 3.47917 22.798 3.2C23.066 2.92083 23.3899 2.78125 23.7695 2.78125ZM25.1765 4.18825C25.1765 4.56792 25.0425 4.89733 24.7745 5.1765C24.5065 5.45567 24.1715 5.59525 23.7695 5.59525H9.83353C9.43153 5.59525 9.09653 5.45567 8.82853 5.1765C8.56053 4.89733 8.42653 4.56792 8.42653 4.18825C8.42653 3.80858 8.56053 3.47917 8.82853 3.2C9.09653 2.92083 9.43153 2.78125 9.83353 2.78125H23.7695C24.1715 2.78125 24.5065 2.92083 24.7745 3.2C25.0425 3.47917 25.1765 3.80858 25.1765 4.18825ZM5.64603 6.96875C5.64603 6.20942 5.83028 5.5115 6.19878 4.875C6.56728 4.2385 7.07536 3.73042 7.72303 3.35075C8.3707 2.97108 9.0742 2.78125 9.83353 2.78125C10.2132 2.78125 10.537 2.92083 10.805 3.2C11.073 3.47917 11.207 3.80858 11.207 4.18825C11.207 4.56792 11.073 4.89733 10.805 5.1765C10.537 5.45567 10.2076 5.59525 9.81678 5.59525C9.42595 5.59525 9.09653 5.72925 8.82853 5.99725C8.56053 6.26525 8.42653 6.59467 8.42653 6.9855C8.42653 7.37633 8.29253 7.70575 8.02453 7.97375C7.75653 8.24175 7.42711 8.37575 7.03628 8.37575C6.64545 8.37575 6.31603 8.24175 6.04803 7.97375C5.78003 7.70575 5.64603 7.37075 5.64603 6.96875ZM7.01953 5.59525C7.42153 5.59525 7.75653 5.72925 8.02453 5.99725C8.29253 6.26525 8.42653 6.58908 8.42653 6.96875V16.7508C8.42653 17.1304 8.29253 17.4598 8.02453 17.739C7.75653 18.0182 7.42711 18.1578 7.03628 18.1578C6.64545 18.1578 6.31603 18.0182 6.04803 17.739C5.78003 17.4598 5.64603 17.1304 5.64603 16.7508V6.96875C5.64603 6.58908 5.78003 6.26525 6.04803 5.99725C6.31603 5.72925 6.63986 5.59525 7.01953 5.59525ZM10.537 30.7203C9.6437 30.7203 8.82295 30.4969 8.07478 30.0503C7.32661 29.6036 6.73478 29.0062 6.29928 28.258C5.86378 27.5098 5.64603 26.6947 5.64603 25.8125C5.64603 24.9303 5.86378 24.1152 6.29928 23.367C6.73478 22.6188 7.32661 22.027 8.07478 21.5915C8.82295 21.156 9.63253 20.9383 10.5035 20.9383C10.9055 20.9383 11.2405 21.0723 11.5085 21.3403C11.7765 21.6083 11.9105 21.9377 11.9105 22.3285C11.9105 22.7193 11.7765 23.0488 11.5085 23.3168C11.2405 23.5848 10.9167 23.7188 10.537 23.7188C9.95636 23.7188 9.45945 23.9253 9.04628 24.3385C8.63311 24.7517 8.42653 25.2486 8.42653 25.8293C8.42653 26.4099 8.63311 26.9013 9.04628 27.3033C9.45945 27.7053 9.95636 27.9063 10.537 27.9063C10.9167 27.9063 11.2405 28.0458 11.5085 28.325C11.7765 28.6042 11.9105 28.9336 11.9105 29.3133C11.9105 29.6929 11.7765 30.0223 11.5085 30.3015C11.2405 30.5807 10.9167 30.7203 10.537 30.7203ZM18.175 22.6133C17.706 24.7573 16.7792 26.6556 15.3945 28.3083C14.8139 29.0453 14.1104 29.6203 13.284 30.0335C12.4577 30.4467 11.5755 30.6756 10.6375 30.7203H10.5035C10.1239 30.6979 9.80003 30.5528 9.53203 30.2848C9.26403 30.0168 9.13003 29.6873 9.13003 29.2965C9.13003 28.9057 9.26961 28.5763 9.54878 28.3083C9.82795 28.0403 10.1574 27.9063 10.537 27.9063H10.5705C11.0842 27.8839 11.5699 27.7555 12.0278 27.521C12.4856 27.2865 12.882 26.9683 13.217 26.5663L13.2505 26.5328C14.3449 25.2151 15.0707 23.7188 15.428 22.0438C15.5174 21.6641 15.7239 21.3682 16.0478 21.156C16.3716 20.9438 16.7234 20.8824 17.103 20.9718C17.4827 21.0611 17.773 21.2677 17.974 21.5915C18.175 21.9153 18.242 22.2559 18.175 22.6133ZM23.0995 30.7203C23.0772 30.7203 23.0437 30.7203 22.999 30.7203H22.9655C22.0275 30.6756 21.1454 30.4467 20.319 30.0335C19.4927 29.6203 18.7892 29.0453 18.2085 28.3083C16.8239 26.6556 15.897 24.7573 15.428 22.6133C15.361 22.2559 15.428 21.9153 15.629 21.5915C15.83 21.2677 16.1204 21.0611 16.5 20.9718C16.8797 20.8824 17.2314 20.9438 17.5553 21.156C17.8791 21.3682 18.0857 21.6641 18.175 22.0438C18.5324 23.7188 19.2582 25.2151 20.3525 26.5328L20.386 26.5663C20.6987 26.9683 21.0895 27.2865 21.5585 27.521C22.0275 27.7555 22.5189 27.8839 23.0325 27.9063H23.066C23.4457 27.9063 23.7751 28.0403 24.0543 28.3083C24.3334 28.5763 24.473 28.9057 24.473 29.2965C24.473 29.6873 24.339 30.0168 24.071 30.2848C23.803 30.5528 23.4792 30.6979 23.0995 30.7203ZM23.0995 20.9383C23.9705 20.9383 24.7801 21.156 25.5283 21.5915C26.2764 22.027 26.8683 22.6188 27.3038 23.367C27.7393 24.1152 27.957 24.9303 27.957 25.8125C27.957 26.6947 27.7393 27.5098 27.3038 28.258C26.8683 29.0062 26.2764 29.6036 25.5283 30.0503C24.7801 30.4969 23.9705 30.7203 23.0995 30.7203C22.6975 30.7203 22.3625 30.5807 22.0945 30.3015C21.8265 30.0223 21.6925 29.6929 21.6925 29.3133C21.6925 28.9336 21.8265 28.6042 22.0945 28.325C22.3625 28.0458 22.6975 27.9063 23.0995 27.9063C23.6579 27.9063 24.1436 27.7053 24.5568 27.3033C24.9699 26.9013 25.1765 26.4099 25.1765 25.8293C25.1765 25.2486 24.9699 24.7517 24.5568 24.3385C24.1436 23.9253 23.6467 23.7188 23.066 23.7188C22.6864 23.7188 22.3625 23.5848 22.0945 23.3168C21.8265 23.0488 21.6925 22.7193 21.6925 22.3285C21.6925 21.9377 21.8265 21.6083 22.0945 21.3403C22.3625 21.0723 22.6975 20.9383 23.0995 20.9383Z" fill="#D11F70"/>
</g>
</svg>
